 <svg width="50" height="50" viewBox="0 0 24 24" fill="none" xmlns="http://www.w3.org/2000/svg">
                    <path
                        d="M21 3H3C1.9 3 1 3.9 1 5V17C1 18.1 1.9 19 3 19H8V21H16V19H21C22.1 19 23 18.1 23 17V5C23 3.9 22.1 3 21 3ZM21 17H3V5H21V17Z"
                        fill="currentColor" />
                    <path
                        d="M12 17.27L18.18 21L16.54 13.97L22 9.24L14.81 8.63L12 2L9.19 8.63L2 9.24L7.46 13.97L5.82 21L12 17.27Z"
                        fill="#FFD700" transform="translate(-2, -8) scale(0.5)" />
                </svg>