 <svg width="50" height="50" viewBox="0 0 24 24" fill="none" xmlns="http://www.w3.org/2000/svg">
                    <path
                        d="M21 3H3C1.9 3 1 3.9 1 5V17C1 18.1 1.9 19 3 19H8V21H16V19H21C22.1 19 23 18.1 23 17V5C23 3.9 22.1 3 21 3ZM21 17H3V5H21V17Z"
                        fill="currentColor" />
                    <path
                        d="M16 6L18.29 8.29L13.41 13.17L9.41 9.17L2 16.59L3.41 18L9.41 12L13.41 16L19.71 9.71L22 12V6H16Z"
                        fill="#FF4444" transform="translate(-2, -8) scale(0.5)" />
                </svg>